<svg viewBox="-88.72 77.84 1805.44 824.32" xmlns="http://www.w3.org/2000/svg">
  <g fill="none" stroke="currentColor" stroke-width="2" stroke-linecap="round" stroke-linejoin="round">
    <path d="M 271,808 L 269,812 L 272,819 L 280,825 L 315,830 L 358,832 L 415,832 L 514,827 L 604,817 L 607,814 L 603,813 L 553,820 L 479,826 L 404,829 L 365,829 L 319,827 L 290,824 L 279,821 L 274,816 L 274,810 L 272,808"/>
    <path d="M 1117,601 L 1137,600 L 1142,602 L 1147,691 L 1147,756 L 1143,759 L 1125,761 L 1080,761 L 1076,760 L 1074,756 L 1070,673 L 1069,604 L 1089,601 L 1116,601"/>
    <path d="M 1313,600 L 1351,600 L 1357,601 L 1359,606 L 1361,605 L 1363,600 L 1365,604 L 1369,679 L 1369,755 L 1365,758 L 1343,760 L 1303,759 L 1297,757 L 1295,743 L 1291,619 L 1292,602 L 1296,600 L 1312,600"/>
    <path d="M 1196,600 L 1224,599 L 1250,602 L 1253,642 L 1255,704 L 1255,746 L 1254,756 L 1251,759 L 1227,762 L 1210,762 L 1184,760 L 1180,758 L 1179,710 L 1177,687 L 1176,602 L 1181,600 L 1195,600"/>
    <path d="M 541,598 L 558,597 L 588,599 L 597,601 L 601,681 L 601,752 L 599,756 L 577,759 L 549,759 L 529,757 L 526,755 L 522,669 L 522,600 L 524,598 L 540,598"/>
    <path d="M 1101,597 L 1070,599 L 1066,603 L 1066,654 L 1071,759 L 1074,764 L 1118,765 L 1145,762 L 1150,758 L 1151,754 L 1149,655 L 1145,601 L 1141,597 L 1102,597"/>
    <path d="M 324,597 L 369,596 L 373,600 L 375,647 L 375,704 L 373,750 L 368,754 L 317,758 L 297,758 L 296,754 L 294,753 L 295,738 L 292,667 L 292,600 L 295,598 L 323,597"/>
    <path d="M 319,593 L 291,596 L 289,599 L 289,677 L 291,714 L 291,752 L 289,756 L 297,762 L 370,757 L 375,753 L 377,748 L 378,727 L 378,629 L 376,597 L 371,593 L 320,593"/>
    <path d="M 598,592 L 599,591 L 600,594 L 599,595 L 598,593"/>
    <path d="M 1248,591 L 1244,598 L 1232,596 L 1183,596 L 1176,597 L 1173,600 L 1174,690 L 1177,754 L 1174,756 L 1174,758 L 1181,763 L 1201,765 L 1234,765 L 1250,763 L 1257,758 L 1258,690 L 1256,635 L 1253,603 L 1254,598 L 1249,591"/>
    <path d="M 421,591 L 420,594 L 427,596 L 458,595 L 481,597 L 487,599 L 490,656 L 490,707 L 488,752 L 483,757 L 471,759 L 446,756 L 411,748 L 408,687 L 408,596 L 406,595 L 405,696 L 408,748 L 404,750 L 404,753 L 408,757 L 413,752 L 455,761 L 483,761 L 487,759 L 491,754 L 493,725 L 493,639 L 490,597 L 484,594 L 422,591"/>
    <path d="M 1363,590 L 1361,591 L 1358,598 L 1345,596 L 1305,596 L 1292,597 L 1288,602 L 1290,677 L 1289,678 L 1293,752 L 1289,754 L 1288,757 L 1292,762 L 1299,761 L 1309,763 L 1348,763 L 1367,761 L 1372,756 L 1373,707 L 1371,645 L 1368,600 L 1364,596 L 1364,591"/>
    <path d="M 754,584 L 785,583 L 851,587 L 933,588 L 939,681 L 941,791 L 945,796 L 959,798 L 961,803 L 967,809 L 966,810 L 727,810 L 721,809 L 719,807 L 719,804 L 721,802 L 735,799 L 738,796 L 738,587 L 753,584"/>
    <path d="M 725,582 L 730,581 L 732,583 L 725,583"/>
    <path d="M 599,581 L 594,596 L 533,594 L 523,595 L 518,600 L 518,652 L 522,754 L 523,757 L 527,760 L 542,762 L 582,762 L 598,760 L 602,758 L 604,754 L 604,668 L 600,599 L 603,596 L 604,590 L 603,584 L 600,581"/>
    <path d="M 938,580 L 943,579 L 944,581 L 942,583 L 937,583 L 937,581"/>
    <path d="M 1079,571 L 1275,570 L 1390,572 L 1392,590 L 1394,705 L 1394,787 L 1391,802 L 1393,804 L 1404,804 L 1409,808 L 1409,810 L 1404,812 L 1123,817 L 1063,820 L 1059,813 L 1055,810 L 1044,810 L 1044,808 L 1050,805 L 1052,786 L 1054,656 L 1057,573 L 1059,571 L 1078,571"/>
    <path d="M 920,527 L 927,526 L 929,528 L 929,547 L 928,553 L 925,555 L 837,554 L 739,556 L 737,553 L 737,534 L 743,532 L 747,533 L 826,529 L 919,527"/>
    <path d="M 762,505 L 733,507 L 731,510 L 731,520 L 727,523 L 636,523 L 632,527 L 634,564 L 637,568 L 698,569 L 701,574 L 698,804 L 696,808 L 626,808 L 620,820 L 620,831 L 621,833 L 624,829 L 624,820 L 627,816 L 629,821 L 630,835 L 628,837 L 609,837 L 606,840 L 605,852 L 606,855 L 609,857 L 1062,858 L 1065,857 L 1068,853 L 1068,838 L 1064,832 L 1047,832 L 1043,830 L 1044,824 L 1062,823 L 1067,826 L 1078,828 L 1134,830 L 1424,830 L 1595,828 L 1620,826 L 1620,824 L 1385,827 L 1142,827 L 1078,825 L 1071,823 L 1090,821 L 1405,815 L 1411,813 L 1413,809 L 1408,802 L 1394,800 L 1397,791 L 1397,665 L 1395,574 L 1397,572 L 1412,572 L 1416,569 L 1416,558 L 1412,553 L 1408,552 L 1399,553 L 1397,556 L 1410,556 L 1413,560 L 1413,567 L 1410,569 L 1397,569 L 1397,563 L 1394,563 L 1391,569 L 1293,567 L 1057,568 L 1054,572 L 1053,581 L 1048,801 L 1043,806 L 1017,809 L 994,809 L 969,806 L 964,799 L 969,795 L 970,782 L 969,780 L 973,572 L 975,570 L 990,569 L 1044,569 L 1048,565 L 1050,555 L 1051,525 L 1050,523 L 1048,523 L 1047,554 L 1045,563 L 1042,566 L 983,566 L 973,567 L 970,569 L 969,572 L 966,793 L 964,796 L 958,792 L 947,793 L 945,791 L 944,784 L 943,696 L 940,629 L 936,588 L 943,586 L 947,583 L 947,578 L 945,576 L 937,576 L 932,583 L 762,579 L 737,583 L 730,577 L 724,578 L 721,581 L 721,584 L 724,587 L 733,587 L 735,589 L 735,794 L 731,797 L 719,799 L 716,803 L 716,809 L 720,812 L 727,813 L 1055,813 L 1058,819 L 1043,821 L 1040,824 L 1040,832 L 1044,835 L 1062,835 L 1065,839 L 1065,851 L 1063,854 L 610,854 L 608,850 L 608,843 L 611,840 L 630,840 L 633,838 L 632,820 L 630,814 L 631,812 L 688,813 L 698,812 L 701,806 L 703,733 L 704,572 L 700,566 L 639,565 L 637,562 L 637,526 L 731,526 L 734,521 L 734,512 L 737,509 L 866,508 L 926,509 L 928,512 L 927,523 L 893,525 L 740,524 L 740,526 L 769,527 L 766,529 L 739,529 L 736,530 L 733,534 L 734,555 L 738,559 L 786,559 L 842,557 L 927,558 L 932,553 L 933,526 L 1038,525 L 1038,522 L 933,523 L 930,508 L 927,506 L 763,505"/>
    <path d="M 1291,416 L 1334,415 L 1359,417 L 1366,419 L 1364,526 L 1361,532 L 1350,534 L 1318,534 L 1296,532 L 1291,530 L 1288,525 L 1288,449 L 1290,417"/>
    <path d="M 1300,411 L 1291,412 L 1287,416 L 1284,476 L 1285,524 L 1281,528 L 1290,534 L 1303,536 L 1352,537 L 1363,535 L 1367,529 L 1370,419 L 1367,415 L 1301,411"/>
    <path d="M 1385,410 L 1389,552 L 1391,553 L 1392,518 L 1388,410 L 1386,410"/>
    <path d="M 530,409 L 535,408 L 546,410 L 593,412 L 595,414 L 598,471 L 598,510 L 597,525 L 595,529 L 550,529 L 527,526 L 524,523 L 522,491 L 523,418 L 524,410 L 529,409"/>
    <path d="M 1186,408 L 1184,409 L 1185,411 L 1210,411 L 1250,415 L 1252,429 L 1254,473 L 1254,523 L 1252,527 L 1253,529 L 1251,531 L 1240,532 L 1185,528 L 1182,525 L 1179,464 L 1179,412 L 1177,410 L 1175,413 L 1176,470 L 1180,528 L 1183,531 L 1210,534 L 1241,535 L 1254,533 L 1258,529 L 1260,529 L 1261,526 L 1257,524 L 1258,490 L 1255,422 L 1253,413 L 1251,411 L 1187,408"/>
    <path d="M 419,407 L 452,406 L 484,408 L 486,410 L 490,478 L 490,519 L 487,525 L 465,527 L 419,522 L 415,520 L 411,455 L 411,408 L 418,407"/>
    <path d="M 1085,406 L 1071,407 L 1067,410 L 1067,452 L 1071,521 L 1069,523 L 1069,528 L 1072,536 L 1075,537 L 1077,535 L 1077,530 L 1075,528 L 1074,523 L 1070,439 L 1070,412 L 1075,410 L 1119,409 L 1144,411 L 1146,413 L 1150,477 L 1150,522 L 1147,526 L 1080,529 L 1083,531 L 1147,530 L 1151,528 L 1153,524 L 1153,468 L 1149,411 L 1146,408 L 1142,407 L 1086,406"/>
    <path d="M 413,403 L 409,405 L 407,409 L 409,486 L 412,522 L 416,525 L 461,530 L 478,530 L 490,527 L 493,521 L 493,465 L 490,416 L 488,406 L 457,403 L 414,403"/>
    <path d="M 273,401 L 271,403 L 272,408 L 275,409 L 281,406 L 284,409 L 286,464 L 291,523 L 293,525 L 302,527 L 334,527 L 373,523 L 376,520 L 377,516 L 377,454 L 373,405 L 370,402 L 365,401 L 294,402 L 295,404 L 301,405 L 363,404 L 370,406 L 374,477 L 373,518 L 370,521 L 305,524 L 293,521 L 287,405 L 279,401 L 274,401"/>
    <path d="M 1393,378 L 1395,377 L 1397,379 L 1400,389 L 1400,395 L 1396,397 L 1392,397 L 1390,395 L 1393,388 L 1393,379"/>
    <path d="M 256,371 L 260,370 L 262,373 L 262,389 L 252,389 L 248,385 L 250,377 L 255,371"/>
    <path d="M 663,347 L 688,346 L 707,348 L 710,350 L 684,351 L 664,348"/>
    <path d="M 788,344 L 801,344 L 814,347 L 866,348 L 873,351 L 871,492 L 835,495 L 788,495 L 765,493 L 767,491 L 776,491 L 779,487 L 781,384 L 780,346 L 783,344 L 787,344"/>
    <path d="M 811,341 L 821,340 L 843,343 L 822,344 L 810,343 L 810,341"/>
    <path d="M 935,338 L 928,340 L 930,342 L 967,341 L 1002,345 L 1005,348 L 1008,407 L 1008,480 L 1007,489 L 1004,492 L 978,495 L 942,495 L 925,493 L 923,491 L 924,469 L 921,405 L 921,350 L 923,348 L 923,344 L 919,340 L 917,343 L 918,414 L 921,488 L 919,490 L 919,493 L 923,497 L 954,499 L 986,498 L 1007,495 L 1011,487 L 1011,396 L 1008,346 L 1004,342 L 987,339 L 936,338"/>
    <path d="M 807,337 L 802,339 L 780,341 L 778,342 L 776,347 L 776,485 L 774,488 L 764,488 L 761,491 L 761,494 L 767,498 L 782,497 L 797,499 L 864,497 L 873,494 L 879,497 L 887,496 L 889,492 L 886,489 L 876,490 L 874,488 L 876,351 L 881,350 L 883,345 L 880,342 L 875,342 L 872,346 L 844,339 L 828,337 L 808,337"/>
    <path d="M 1159,323 L 1229,322 L 1324,327 L 1326,329 L 1326,371 L 1330,374 L 1336,375 L 1390,376 L 1391,379 L 1387,390 L 1387,396 L 1163,396 L 1064,394 L 1060,392 L 1060,375 L 1062,369 L 1105,368 L 1121,366 L 1125,361 L 1123,329 L 1125,327 L 1135,324 L 1158,323"/>
    <path d="M 613,306 L 613,353 L 612,358 L 608,362 L 610,365 L 613,363 L 616,356 L 617,321 L 616,309 L 614,306"/>
    <path d="M 1123,302 L 1151,301 L 1298,306 L 1338,306 L 1339,325 L 1332,325 L 1330,323 L 1332,321 L 1331,318 L 1328,318 L 1325,324 L 1273,320 L 1207,318 L 1141,318 L 1132,319 L 1128,321 L 1125,319 L 1119,319 L 1117,317 L 1117,305 L 1119,302 L 1122,302"/>
    <path d="M 409,300 L 327,302 L 319,304 L 316,309 L 317,322 L 320,327 L 323,346 L 322,360 L 320,362 L 315,363 L 285,363 L 283,366 L 286,368 L 318,366 L 326,361 L 326,344 L 323,327 L 320,319 L 320,308 L 322,306 L 369,304 L 539,303 L 541,305 L 540,325 L 537,325 L 535,323 L 535,318 L 532,317 L 529,321 L 499,319 L 442,319 L 343,323 L 338,324 L 337,326 L 340,328 L 360,326 L 428,323 L 529,324 L 531,326 L 531,360 L 533,365 L 536,367 L 544,368 L 596,368 L 599,371 L 604,372 L 606,374 L 606,384 L 603,388 L 599,389 L 572,390 L 267,390 L 264,370 L 261,367 L 256,367 L 252,369 L 246,378 L 245,388 L 248,391 L 261,392 L 263,394 L 262,551 L 258,553 L 246,553 L 243,555 L 241,559 L 241,565 L 246,570 L 256,570 L 262,572 L 262,790 L 261,809 L 259,815 L 253,821 L 244,823 L 9,823 L 8,826 L 247,826 L 256,823 L 263,814 L 265,798 L 265,580 L 267,571 L 607,571 L 611,568 L 611,534 L 608,530 L 599,528 L 601,521 L 601,458 L 598,413 L 595,409 L 552,406 L 547,404 L 523,406 L 520,410 L 519,504 L 521,525 L 525,529 L 536,531 L 562,533 L 605,533 L 608,536 L 608,567 L 267,568 L 264,563 L 261,564 L 259,567 L 248,567 L 245,565 L 245,559 L 248,556 L 258,556 L 262,555 L 265,552 L 267,393 L 581,393 L 601,392 L 606,390 L 609,385 L 609,372 L 603,368 L 601,364 L 539,364 L 535,361 L 534,328 L 542,328 L 544,326 L 544,302 L 542,300 L 410,300"/>
    <path d="M 1052,299 L 1055,298 L 1057,301 L 1053,302 L 1052,300"/>
    <path d="M 1121,298 L 1116,299 L 1114,302 L 1115,321 L 1125,323 L 1119,328 L 1121,361 L 1119,363 L 1114,364 L 1061,366 L 1058,369 L 1056,393 L 1059,396 L 1072,398 L 1243,400 L 1399,400 L 1404,396 L 1401,379 L 1396,373 L 1342,372 L 1329,369 L 1329,329 L 1340,329 L 1342,327 L 1342,305 L 1340,303 L 1122,298"/>
    <path d="M 825,122 L 810,135 L 775,161 L 596,285 L 595,288 L 598,289 L 661,244 L 719,205 L 788,156 L 828,125 L 880,160 L 1049,282 L 845,282 L 836,284 L 839,286 L 890,288 L 1002,288 L 1018,286 L 1052,286 L 1057,288 L 1057,294 L 1052,294 L 1047,302 L 652,302 L 635,300 L 635,286 L 638,283 L 824,282 L 824,279 L 801,272 L 789,262 L 782,250 L 779,236 L 781,221 L 789,206 L 804,194 L 821,189 L 838,190 L 852,196 L 866,209 L 871,218 L 874,237 L 869,255 L 862,265 L 855,271 L 847,275 L 834,278 L 833,280 L 839,281 L 855,275 L 865,267 L 875,249 L 877,229 L 872,212 L 861,198 L 844,188 L 836,186 L 817,186 L 807,189 L 793,197 L 782,210 L 777,223 L 776,241 L 779,252 L 787,265 L 798,274 L 809,278 L 809,280 L 636,280 L 632,284 L 631,301 L 616,300 L 609,297 L 599,296 L 597,292 L 594,293 L 594,297 L 599,300 L 608,300 L 618,304 L 632,305 L 634,380 L 641,494 L 646,498 L 672,500 L 727,498 L 734,495 L 736,491 L 739,379 L 738,356 L 743,353 L 743,350 L 739,347 L 722,349 L 709,345 L 680,342 L 667,342 L 659,344 L 657,346 L 657,348 L 663,352 L 675,354 L 726,353 L 735,356 L 733,489 L 729,494 L 712,496 L 648,495 L 644,492 L 635,318 L 635,306 L 637,304 L 820,306 L 1036,305 L 1047,307 L 1045,506 L 1046,520 L 1048,521 L 1050,311 L 1052,305 L 1058,305 L 1061,302 L 1060,288 L 1058,284 L 869,148 L 830,122 L 826,122"/>
  </g>
</svg>
