<svg viewBox="0 0 1925.17 543.92" xmlns="http://www.w3.org/2000/svg">
  <g fill="none" stroke="currentColor" stroke-width="2" stroke-linecap="round" stroke-linejoin="round">
    <path d="m 572.610113009,481.788328825 l -1.31967877951,2.63935755903 l 1.97951816927,4.6188757283 l 5.27871511806,3.95903633854 l 23.0943786415,3.29919694879 l 28.3730937596,1.31967877951 l 37.6108452162,0 l 65.324099586,-3.29919694879 l 59.3855450782,-6.59839389757 l 1.97951816927,-1.97951816927 l -2.63935755903,-0.659839389757 l -32.9919694879,4.6188757283 l -48.8281148421,3.95903633854 l -49.4879542318,1.97951816927 l -25.7337362005,0 l -30.3526119288,-1.31967877951 l -19.135342303,-1.97951816927 l -7.25823328733,-1.97951816927 l -3.29919694879,-3.29919694879 l 0,-3.95903633854 l -1.31967877951,-1.31967877951"/>
    <path d="m 1130.83423675,345.201575146 l 13.1967877951,-0.659839389758 l 3.29919694879,1.31967877951 l 3.29919694879,58.7257056884 l 0,42.8895603342 l -2.63935755903,1.97951816927 l -11.8771090156,1.31967877951 l -29.6927725391,0 l -2.63935755903,-0.659839389758 l -1.31967877952,-2.63935755903 l -2.63935755903,-54.7666693499 l -0.659839389758,-45.5289178933 l 13.1967877951,-1.97951816927 l 17.8156635235,0"/>
    <path d="m 1260.16275714,344.541735756 l 25.0738968108,0 l 3.95903633854,0.659839389758 l 1.31967877952,3.29919694879 l 1.31967877951,-0.659839389757 l 1.31967877951,-3.29919694879 l 1.31967877952,2.63935755903 l 2.63935755903,49.4879542318 l 0,50.1477936216 l -2.63935755903,1.97951816927 l -14.5164665747,1.31967877951 l -26.3935755903,-0.659839389757 l -3.95903633854,-1.31967877951 l -1.31967877951,-9.2377514566 l -2.63935755903,-81.8200843299 l 0.659839389758,-11.2172696259 l 2.63935755903,-1.31967877951 l 10.5574302361,0"/>
    <path d="m 1182.96154854,344.541735756 l 18.4755029132,-0.659839389757 l 17.1558241337,1.97951816927 l 1.97951816927,26.3935755903 l 1.31967877952,40.910042165 l 0,27.7132543698 l -0.659839389758,6.59839389757 l -1.97951816927,1.97951816927 l -15.8361453542,1.97951816927 l -11.2172696259,0 l -17.1558241337,-1.31967877951 l -2.63935755903,-1.31967877951 l -0.659839389758,-31.6722907084 l -1.31967877951,-15.1763059644 l -0.659839389758,-56.0863481294 l 3.29919694879,-1.31967877951 l 9.2377514566,0"/>
    <path d="m 750.766748244,343.222056976 l 11.2172696259,-0.659839389757 l 19.7951816927,1.31967877951 l 5.93855450782,1.31967877951 l 2.63935755903,52.7871511806 l 0,46.8485966728 l -1.31967877951,2.63935755903 l -14.5164665747,1.97951816927 l -18.4755029132,0 l -13.1967877951,-1.31967877951 l -1.97951816927,-1.31967877951 l -2.63935755903,-56.7461875191 l 0,-45.5289178933 l 1.31967877952,-1.31967877951 l 10.5574302361,0"/>
    <path d="m 1120.27680651,342.562217587 l -20.4550210825,1.31967877951 l -2.63935755903,2.63935755903 l 0,33.6518088776 l 3.29919694879,69.2831359245 l 1.97951816927,3.29919694879 l 29.0329331493,0.659839389757 l 17.8156635235,-1.97951816927 l 3.29919694879,-2.63935755903 l 0.659839389758,-2.63935755903 l -1.31967877952,-65.324099586 l -2.63935755903,-35.6313270469 l -2.63935755903,-2.63935755903 l -25.7337362005,0"/>
    <path d="m 607.581600666,342.562217587 l 29.6927725391,-0.659839389758 l 2.63935755903,2.63935755903 l 1.31967877951,31.0124513186 l 0,37.6108452162 l -1.31967877951,30.3526119288 l -3.29919694879,2.63935755903 l -33.6518088776,2.63935755903 l -13.1967877951,0 l -0.659839389758,-2.63935755903 l -1.31967877951,-0.659839389757 l 0.659839389757,-9.89759084636 l -1.97951816927,-46.8485966728 l 0,-44.2092391137 l 1.97951816927,-1.31967877951 l 18.4755029132,-0.659839389757"/>
    <path d="m 604.282403717,339.922860028 l -18.4755029132,1.97951816927 l -1.31967877951,1.97951816927 l 0,51.4674724011 l 1.31967877951,24.414057421 l 0,25.0738968108 l -1.31967877951,2.63935755903 l 5.27871511806,3.95903633854 l 48.1682754523,-3.29919694879 l 3.29919694879,-2.63935755903 l 1.31967877951,-3.29919694879 l 0.659839389757,-13.8566271849 l 0,-64.6642601962 l -1.31967877951,-21.1148604722 l -3.29919694879,-2.63935755903 l -33.6518088776,0"/>
    <path d="m 788.37759346,339.263020638 l 0.659839389757,-0.659839389758 l 0.659839389757,1.97951816927 l -0.659839389757,0.659839389757 l -0.659839389757,-1.31967877951"/>
    <path d="m 1217.27319681,338.603181248 l -2.63935755903,4.6188757283 l -7.91807267709,-1.31967877951 l -32.3321300981,0 l -4.6188757283,0.659839389758 l -1.97951816927,1.97951816927 l 0.659839389758,59.3855450782 l 1.97951816927,42.2297209445 l -1.97951816927,1.31967877951 l 0,1.31967877951 l 4.6188757283,3.29919694879 l 13.1967877951,1.31967877951 l 21.774699862,0 l 10.5574302361,-1.31967877951 l 4.6188757283,-3.29919694879 l 0.659839389758,-44.8690785035 l -1.31967877951,-36.2911664367 l -1.97951816927,-21.1148604722 l 0.659839389758,-3.29919694879 l -3.29919694879,-4.6188757283"/>
    <path d="m 671.586021473,338.603181248 l -0.659839389757,1.97951816927 l 4.6188757283,1.31967877951 l 20.4550210825,-0.659839389757 l 15.1763059644,1.31967877951 l 3.95903633854,1.31967877951 l 1.97951816927,37.6108452162 l 0,33.6518088776 l -1.31967877951,29.6927725391 l -3.29919694879,3.29919694879 l -7.91807267709,1.31967877951 l -16.4959847439,-1.97951816927 l -23.0943786415,-5.27871511806 l -1.97951816927,-40.2502027752 l 0,-60.0453844679 l -1.31967877951,-0.659839389757 l -0.659839389757,66.6437783655 l 1.97951816927,34.3116482674 l -2.63935755903,1.31967877951 l 0,1.97951816927 l 2.63935755903,2.63935755903 l 3.29919694879,-3.29919694879 l 27.7132543698,5.93855450782 l 18.4755029132,0 l 2.63935755903,-1.31967877951 l 2.63935755903,-3.29919694879 l 1.31967877951,-19.135342303 l 0,-56.7461875191 l -1.97951816927,-27.7132543698 l -3.95903633854,-1.97951816927 l -40.910042165,-1.97951816927"/>
    <path d="m 1293.15472663,337.943341858 l -1.31967877951,0.659839389757 l -1.97951816927,4.6188757283 l -8.57791206685,-1.31967877951 l -26.3935755903,0 l -8.57791206685,0.659839389758 l -2.63935755903,3.29919694879 l 1.31967877951,49.4879542318 l -0.659839389758,0.659839389757 l 2.63935755903,48.8281148421 l -2.63935755903,1.31967877951 l -0.659839389757,1.97951816927 l 2.63935755903,3.29919694879 l 4.6188757283,-0.659839389757 l 6.59839389757,1.31967877951 l 25.7337362005,0 l 12.5369484054,-1.31967877951 l 3.29919694879,-3.29919694879 l 0.659839389758,-32.3321300981 l -1.31967877952,-40.910042165 l -1.97951816927,-29.6927725391 l -2.63935755903,-2.63935755903 l 0,-3.29919694879"/>
    <path d="m 891.312538262,333.98430552 l 20.4550210825,-0.659839389758 l 43.549399724,2.63935755903 l 54.1068299601,0.659839389758 l 3.95903633854,61.3650632474 l 1.31967877951,72.5823328733 l 2.63935755903,3.29919694879 l 9.2377514566,1.31967877951 l 1.31967877951,3.29919694879 l 3.95903633854,3.95903633854 l -0.659839389758,0.659839389757 L 873.496874738,483.108007605 l -3.95903633854,-0.659839389757 l -1.31967877952,-1.31967877951 l 0,-1.97951816927 l 1.31967877952,-1.31967877951 l 9.2377514566,-1.97951816927 l 1.97951816927,-1.97951816927 L 880.755108026,335.963823689 l 9.89759084636,-1.97951816927"/>
    <path d="m 872.177195959,332.66462674 l 3.29919694879,-0.659839389757 l 1.31967877952,1.31967877951 l -4.6188757283,0"/>
    <path d="m 789.03743285,332.004787351 l -3.29919694879,9.89759084636 l -40.2502027752,-1.31967877951 l -6.59839389757,0.659839389757 l -3.29919694879,3.29919694879 l 0,34.3116482674 l 2.63935755903,67.3036177553 l 0.659839389758,1.97951816927 l 2.63935755903,1.97951816927 l 9.89759084636,1.31967877951 l 26.3935755903,0 l 10.5574302361,-1.31967877951 l 2.63935755903,-1.31967877951 l 1.31967877951,-2.63935755903 l 0,-56.7461875191 l -2.63935755903,-45.5289178933 l 1.97951816927,-1.97951816927 l 0.659839389757,-3.95903633854 l -0.659839389757,-3.95903633854 l -1.97951816927,-1.97951816927"/>
    <path d="m 1012.72298598,331.344947961 l 3.29919694879,-0.659839389757 l 0.659839389757,1.31967877951 l -1.31967877951,1.31967877951 l -3.29919694879,0 l 0,-1.31967877951"/>
    <path d="m 1105.76033994,325.406393453 l 129.328520392,-0.659839389758 l 75.8815298221,1.31967877951 l 1.31967877951,11.8771090156 l 1.31967877951,75.8815298221 l 0,54.1068299601 l -1.97951816927,9.89759084636 l 1.31967877951,1.31967877951 l 7.25823328733,0 l 3.29919694879,2.63935755903 l 0,1.31967877951 l -3.29919694879,1.31967877951 l -185.414868522,3.29919694879 l -39.5903633854,1.97951816927 l -2.63935755903,-4.6188757283 l -2.63935755903,-1.97951816927 l -7.25823328733,0 l 0,-1.31967877951 l 3.95903633854,-1.97951816927 l 1.31967877951,-12.5369484054 l 1.31967877952,-85.7791206685 l 1.97951816927,-54.7666693499 l 1.31967877951,-1.31967877951 l 12.5369484054,0"/>
    <path d="m 1000.84587696,296.373460304 l 4.6188757283,-0.659839389758 l 1.31967877951,1.31967877951 l 0,12.5369484054 l -0.659839389757,3.95903633854 l -1.97951816927,1.31967877951 l -58.0658662987,-0.659839389758 l -64.6642601962,1.31967877951 l -1.31967877952,-1.97951816927 l 0,-12.5369484054 l 3.95903633854,-1.31967877951 l 2.63935755903,0.659839389757 l 52.1273117908,-2.63935755903 l 61.3650632474,-1.31967877951"/>
    <path d="m 896.59125338,281.856993729 l -19.135342303,1.31967877951 l -1.31967877951,1.97951816927 l 0,6.59839389757 l -2.63935755903,1.97951816927 l -60.0453844679,0 l -2.63935755903,2.63935755903 l 1.31967877951,24.414057421 l 1.97951816927,2.63935755903 l 40.2502027752,0.659839389757 l 1.97951816927,3.29919694879 l -1.97951816927,151.763059644 l -1.31967877951,2.63935755903 l -46.188757283,0 l -3.95903633854,7.91807267709 l 0,7.25823328733 l 0.659839389757,1.31967877951 l 1.97951816927,-2.63935755903 l 0,-5.93855450782 l 1.97951816927,-2.63935755903 l 1.31967877951,3.29919694879 l 0.659839389757,9.2377514566 l -1.31967877951,1.31967877951 l -12.5369484054,0 l -1.97951816927,1.97951816927 l -0.659839389758,7.91807267709 l 0.659839389758,1.97951816927 l 1.97951816927,1.31967877951 l 298.90724356,0.659839389757 l 1.97951816927,-0.659839389757 l 1.97951816927,-2.63935755903 l 0,-9.89759084636 l -2.63935755903,-3.95903633854 l -11.2172696259,0 l -2.63935755903,-1.31967877951 l 0.659839389757,-3.95903633854 l 11.8771090156,-0.659839389758 l 3.29919694879,1.97951816927 l 7.25823328733,1.31967877951 l 36.9510058264,1.31967877951 l 191.35342303,0 l 222.27930342,0.120407491843 l 150.424245522,-1.31967877951 L 1822.03559475,492.345759062 L 1307.6711932,494.325277231 l -160.340971711,0 l -42.2297209445,-1.31967877951 l -4.6188757283,-1.31967877951 l 12.5369484054,-1.31967877951 l 207.849407774,-3.95903633854 l 3.95903633854,-1.31967877951 l 1.31967877951,-2.63935755903 l -3.29919694879,-4.6188757283 l -9.2377514566,-1.31967877951 l 1.97951816927,-5.93855450782 L 1315.58926588,387.43129609 l -1.31967877952,-60.0453844679 l 1.31967877952,-1.31967877951 l 9.89759084636,0 l 2.63935755903,-1.97951816927 l 0,-7.25823328733 l -2.63935755903,-3.29919694879 l -2.63935755903,-0.659839389758 l -5.93855450782,0.659839389758 l -1.31967877951,1.97951816927 l 8.57791206685,0 l 1.97951816927,2.63935755903 l 0,4.6188757283 l -1.97951816927,1.31967877951 l -8.57791206685,0 l 0,-3.95903633854 l -1.97951816927,0 l -1.97951816927,3.95903633854 l -64.6642601962,-1.31967877951 l -155.722095983,0.659839389758 l -1.97951816927,2.63935755903 l -0.659839389758,5.93855450782 l -3.29919694879,145.164665747 l -3.29919694879,3.29919694879 l -17.1558241337,1.97951816927 l -15.1763059644,0 l -16.4959847439,-1.97951816927 l -3.29919694879,-4.6188757283 l 3.29919694879,-2.63935755903 l 0.659839389757,-8.57791206685 l -0.659839389757,-1.31967877951 l 2.63935755903,-137.24659307 l 1.31967877951,-1.31967877951 l 9.89759084636,-0.659839389757 l 35.6313270469,0 l 2.63935755903,-2.63935755903 l 1.31967877951,-6.59839389757 l 0.659839389757,-19.7951816927 l -0.659839389757,-1.31967877951 l -1.31967877951,0 l -0.659839389758,20.4550210825 l -1.31967877952,5.93855450782 l -1.97951816927,1.97951816927 l -38.9305239957,0 l -6.59839389757,0.659839389757 l -1.97951816927,1.31967877951 l -0.659839389757,1.97951816927 l -1.97951816927,145.824505136 l -1.31967877951,1.97951816927 l -3.95903633854,-2.63935755903 l -7.25823328733,0.659839389758 l -1.31967877951,-1.31967877951 l -0.659839389758,-4.6188757283 l -0.659839389757,-58.0658662987 l -1.97951816927,-44.2092391137 l -2.63935755903,-27.0534149801 l 4.6188757283,-1.31967877951 l 2.63935755903,-1.97951816927 l 0,-3.29919694879 l -1.31967877951,-1.31967877951 l -5.27871511806,0 l -3.29919694879,4.6188757283 l -112.172696259,-2.63935755903 l -16.4959847439,2.63935755903 l -4.6188757283,-3.95903633854 l -3.95903633854,0.659839389757 l -1.97951816927,1.97951816927 l 0,1.97951816927 l 1.97951816927,1.97951816927 l 5.93855450782,0 l 1.31967877951,1.31967877951 l 0,135.2670749 l -2.63935755903,1.97951816927 l -7.91807267709,1.31967877951 l -1.97951816927,2.63935755903 l 0,3.95903633854 l 2.63935755903,1.97951816927 l 4.6188757283,0.659839389758 l 216.42731984,0 l 1.97951816927,3.95903633854 l -9.89759084636,1.31967877951 l -1.97951816927,1.97951816927 l 0,5.27871511806 l 2.63935755903,1.97951816927 l 11.8771090156,0 l 1.97951816927,2.63935755903 l 0,7.91807267709 l -1.31967877951,1.97951816927 L 796.295666137,512.140940754 l -1.31967877951,-2.63935755903 l 0,-4.6188757283 l 1.97951816927,-1.97951816927 l 12.5369484054,0 l 1.97951816927,-1.31967877951 l -0.659839389757,-11.8771090156 l -1.31967877952,-3.95903633854 l 0.659839389758,-1.31967877951 l 37.6108452162,0.659839389758 l 6.59839389757,-0.659839389758 l 1.97951816927,-3.95903633854 l 1.31967877951,-48.1682754523 l 0.659839389757,-106.234141751 l -2.63935755903,-3.95903633854 l -40.2502027752,-0.659839389758 l -1.31967877952,-1.97951816927 l 0,-23.7542180313 l 62.0249026372,0 l 1.97951816927,-3.29919694879 l 0,-5.93855450782 l 1.97951816927,-1.97951816927 l 85.1192812787,-0.659839389757 l 39.5903633854,0.659839389757 l 1.31967877951,1.97951816927 l -0.659839389758,7.25823328733 l -22.4345392518,1.31967877951 l -100.955426633,-0.659839389758 l 0,1.31967877951 l 19.135342303,0.659839389758 l -1.97951816927,1.31967877951 l -17.8156635235,0 l -1.97951816927,0.659839389757 l -1.97951816927,2.63935755903 l 0.659839389757,13.8566271849 l 2.63935755903,2.63935755903 l 31.6722907084,0 l 36.9510058264,-1.31967877951 l 56.0863481294,0.659839389758 l 3.29919694879,-3.29919694879 l 0.659839389757,-17.8156635235 l 69.2831359245,-0.659839389757 l 0,-1.97951816927 l -69.2831359245,0.659839389758 l -1.97951816927,-9.89759084636 l -1.97951816927,-1.31967877951 l -108.21365992,-0.659839389757"/>
    <path d="m 1245.64629056,223.131288041 l 28.3730937596,-0.659839389758 l 16.4959847439,1.31967877951 l 4.6188757283,1.31967877951 l -1.31967877952,70.602814704 l -1.97951816927,3.95903633854 l -7.25823328733,1.31967877951 l -21.1148604722,0 l -14.5164665747,-1.31967877951 l -3.29919694879,-1.31967877951 l -1.97951816927,-3.29919694879 l 0,-50.1477936216 l 1.31967877951,-21.1148604722"/>
    <path d="m 1251.58484507,219.832091092 l -5.93855450782,0.659839389758 l -2.63935755903,2.63935755903 l -1.97951816927,39.5903633854 l 0.659839389758,31.6722907084 l -2.63935755903,2.63935755903 l 5.93855450782,3.95903633854 l 8.57791206685,1.31967877951 l 32.3321300981,0.659839389757 l 7.25823328733,-1.31967877951 l 2.63935755903,-3.95903633854 l 1.97951816927,-72.5823328733 l -1.97951816927,-2.63935755903 l -43.549399724,-2.63935755903"/>
    <path d="m 1307.6711932,219.172251702 l 2.63935755903,93.6971933456 l 1.31967877951,0.659839389758 l 0.659839389758,-23.0943786415 l -2.63935755903,-71.2626540938 l -1.31967877952,0"/>
    <path d="m 743.508514956,218.512412312 l 3.29919694879,-0.659839389757 l 7.25823328733,1.31967877951 l 31.0124513186,1.31967877951 l 1.31967877952,1.31967877951 l 1.97951816927,37.6108452162 l 0,25.7337362005 l -0.659839389758,9.89759084636 l -1.31967877951,2.63935755903 l -29.6927725391,0 l -15.1763059644,-1.97951816927 l -1.97951816927,-1.97951816927 l -1.31967877952,-21.1148604722 l 0.659839389758,-48.1682754523 l 0.659839389758,-5.27871511806 l 3.29919694879,-0.659839389758"/>
    <path d="m 1176.36315464,217.852572922 l -1.31967877951,0.659839389757 l 0.659839389757,1.31967877951 l 16.4959847439,0 l 26.3935755903,2.63935755903 l 1.31967877951,9.2377514566 l 1.31967877952,29.0329331493 l 0,32.9919694879 l -1.31967877952,2.63935755903 l 0.659839389758,1.31967877951 l -1.31967877951,1.31967877951 l -7.25823328733,0.659839389757 l -36.2911664367,-2.63935755903 l -1.97951816927,-1.97951816927 l -1.97951816927,-40.2502027752 l 0,-34.3116482674 l -1.31967877951,-1.31967877951 l -1.31967877951,1.97951816927 l 0.659839389757,37.6108452162 l 2.63935755903,38.2706846059 l 1.97951816927,1.97951816927 l 17.8156635235,1.97951816927 l 20.4550210825,0.659839389757 l 8.57791206685,-1.31967877951 l 2.63935755903,-2.63935755903 l 1.31967877951,0 l 0.659839389758,-1.97951816927 l -2.63935755903,-1.31967877951 l 0.659839389758,-22.4345392518 l -1.97951816927,-44.8690785035 l -1.31967877952,-5.93855450782 l -1.31967877951,-1.31967877951 l -42.2297209445,-1.97951816927"/>
    <path d="m 670.266342693,217.192733533 l 21.774699862,-0.659839389757 l 21.1148604722,1.31967877951 l 1.31967877951,1.31967877951 l 2.63935755903,44.8690785035 l 0,27.0534149801 l -1.97951816927,3.95903633854 l -14.5164665747,1.31967877951 l -30.3526119288,-3.29919694879 l -2.63935755903,-1.31967877951 l -2.63935755903,-42.8895603342 l 0,-31.0124513186 l 4.6188757283,-0.659839389758"/>
    <path d="m 1109.71937627,216.532894143 l -9.2377514566,0.659839389757 l -2.63935755903,1.97951816927 l 0,27.7132543698 l 2.63935755903,45.5289178933 l -1.31967877952,1.31967877951 l 0,3.29919694879 l 1.97951816927,5.27871511806 l 1.97951816927,0.659839389757 l 1.31967877952,-1.31967877951 l 0,-3.29919694879 l -1.31967877952,-1.31967877951 l -0.659839389758,-3.29919694879 l -2.63935755903,-55.4265087396 l 0,-17.8156635235 l 3.29919694879,-1.31967877951 l 29.0329331493,-0.659839389758 l 16.4959847439,1.31967877951 l 1.31967877951,1.31967877951 l 2.63935755903,42.2297209445 l 0,29.6927725391 l -1.97951816927,2.63935755903 l -44.2092391137,1.97951816927 l 1.97951816927,1.31967877951 l 42.2297209445,-0.659839389758 l 2.63935755903,-1.31967877951 l 1.31967877951,-2.63935755903 l 0,-36.9510058264 l -2.63935755903,-37.6108452162 l -1.97951816927,-1.97951816927 l -2.63935755903,-0.659839389758 l -36.9510058264,-0.659839389757"/>
    <path d="m 666.307306355,214.553375974 l -2.63935755903,1.31967877951 l -1.31967877952,2.63935755903 l 1.31967877952,50.8076330113 l 1.97951816927,23.7542180313 l 2.63935755903,1.97951816927 l 29.6927725391,3.29919694879 l 11.2172696259,0 l 7.91807267709,-1.97951816927 l 1.97951816927,-3.95903633854 l 0,-36.9510058264 l -1.97951816927,-32.3321300981 l -1.31967877951,-6.59839389757 l -20.4550210825,-1.97951816927 l -28.3730937596,0"/>
    <path d="m 573.929791789,213.233697194 l -1.31967877951,1.31967877951 l 0.659839389758,3.29919694879 l 1.97951816927,0.659839389757 l 3.95903633854,-1.97951816927 l 1.97951816927,1.97951816927 l 1.31967877951,36.2911664367 l 3.29919694879,38.9305239957 l 1.31967877951,1.31967877951 l 5.93855450782,1.31967877951 l 21.1148604722,0 l 25.7337362005,-2.63935755903 l 1.97951816927,-1.97951816927 l 0.659839389758,-2.63935755903 l 0,-40.910042165 l -2.63935755903,-32.3321300981 l -1.97951816927,-1.97951816927 l -3.29919694879,-0.659839389757 l -46.8485966728,0.659839389757 l 0.659839389757,1.31967877951 l 3.95903633854,0.659839389757 l 40.910042165,-0.659839389757 l 4.6188757283,1.31967877951 l 2.63935755903,46.8485966728 l -0.659839389757,27.0534149801 l -1.97951816927,1.97951816927 l -42.8895603342,1.97951816927 l -7.91807267709,-1.97951816927 l -3.95903633854,-76.5413692119 l -5.27871511806,-2.63935755903 l -3.29919694879,0"/>
    <path d="m 1312.94990832,198.05739123 l 1.31967877952,-0.659839389757 l 1.31967877952,1.31967877951 l 1.97951816927,6.59839389757 l 0,3.95903633854 l -2.63935755903,1.31967877951 l -2.63935755903,0 l -1.31967877951,-1.31967877951 l 1.97951816927,-4.6188757283 l 0,-5.93855450782"/>
    <path d="m 562.712522163,193.438515501 l 2.63935755903,-0.659839389758 l 1.31967877951,1.97951816927 l 0,10.5574302361 l -6.59839389757,0 l -2.63935755903,-2.63935755903 l 1.31967877951,-5.27871511806 l 3.29919694879,-3.95903633854"/>
    <path d="m 831.267153794,177.602370147 l 16.4959847439,-0.659839389758 l 12.5369484054,1.31967877951 l 1.97951816927,1.31967877951 l -17.1558241337,0.659839389757 l -13.1967877951,-1.97951816927"/>
    <path d="m 913.747077514,175.622851978 l 8.57791206685,0 l 8.57791206685,1.97951816927 l 34.3116482674,0.659839389757 l 4.6188757283,1.97951816927 l -1.31967877951,93.0373539558 l -23.7542180313,1.97951816927 l -31.0124513186,0 l -15.1763059644,-1.31967877951 l 1.31967877951,-1.31967877951 l 5.93855450782,0 l 1.97951816927,-2.63935755903 l 1.31967877951,-67.963457145 l -0.659839389757,-25.0738968108 l 1.97951816927,-1.31967877951 l 2.63935755903,0"/>
    <path d="m 928.923383478,173.643333809 l 6.59839389757,-0.659839389757 l 14.5164665747,1.97951816927 l -13.8566271849,0.659839389757 l -7.91807267709,-0.659839389757 l 0,-1.31967877951"/>
    <path d="m 1010.74346781,171.663815639 l -4.6188757283,1.31967877951 l 1.31967877951,1.31967877951 l 24.414057421,-0.659839389757 l 23.0943786415,2.63935755903 l 1.97951816927,1.97951816927 l 1.97951816927,38.9305239957 l 0,48.1682754523 l -0.659839389758,5.93855450782 l -1.97951816927,1.97951816927 l -17.1558241337,1.97951816927 l -23.7542180313,0 l -11.2172696259,-1.31967877951 l -1.31967877951,-1.31967877951 l 0.659839389758,-14.5164665747 l -1.97951816927,-42.2297209445 l 0,-36.2911664367 l 1.31967877951,-1.31967877951 l 0,-2.63935755903 l -2.63935755903,-2.63935755903 l -1.31967877951,1.97951816927 l 0.659839389757,46.8485966728 l 1.97951816927,48.8281148421 l -1.31967877951,1.31967877951 l 0,1.97951816927 l 2.63935755903,2.63935755903 l 20.4550210825,1.31967877951 l 21.1148604722,-0.659839389758 l 13.8566271849,-1.97951816927 l 2.63935755903,-5.27871511806 l 0,-60.0453844679 l -1.97951816927,-32.9919694879 l -2.63935755903,-2.63935755903 l -11.2172696259,-1.97951816927 l -33.6518088776,-0.659839389757"/>
    <path d="m 926.284025919,171.00397625 l -3.29919694879,1.31967877951 l -14.5164665747,1.31967877951 l -1.31967877951,0.659839389757 l -1.31967877951,3.29919694879 l 0,91.0578357865 l -1.31967877951,1.97951816927 l -6.59839389757,0 l -1.97951816927,1.97951816927 l 0,1.97951816927 l 3.95903633854,2.63935755903 l 9.89759084636,-0.659839389757 l 9.89759084636,1.31967877951 l 44.2092391137,-1.31967877951 l 5.93855450782,-1.97951816927 l 3.95903633854,1.97951816927 l 5.27871511806,-0.659839389758 l 1.31967877951,-2.63935755903 l -1.97951816927,-1.97951816927 l -6.59839389757,0.659839389758 l -1.31967877951,-1.31967877951 l 1.31967877951,-90.3979963968 l 3.29919694879,-0.659839389757 l 1.31967877951,-3.29919694879 l -1.97951816927,-1.97951816927 l -3.29919694879,0 l -1.97951816927,2.63935755903 l -18.4755029132,-4.6188757283 l -10.5574302361,-1.31967877951 l -13.1967877951,0"/>
    <path d="m 1158.54749112,161.766224793 l 46.188757283,-0.659839389758 l 62.684742027,3.29919694879 l 1.31967877951,1.31967877951 l 0,27.7132543698 l 2.63935755903,1.97951816927 l 3.95903633854,0.659839389757 l 35.6313270469,0.659839389757 l 0.659839389757,1.97951816927 l -2.63935755903,7.25823328733 l 0,3.95903633854 l -147.804023306,0 l -65.324099586,-1.31967877951 l -2.63935755903,-1.31967877951 l 0,-11.2172696259 l 1.31967877952,-3.95903633854 l 28.3730937596,-0.659839389758 l 10.5574302361,-1.31967877951 l 2.63935755903,-3.29919694879 l -1.31967877951,-21.1148604722 l 1.31967877951,-1.31967877951 l 6.59839389757,-1.97951816927 l 15.1763059644,-0.659839389757"/>
    <path d="m 798.275184306,150.548955167 l 0,31.0124513186 l -0.659839389758,3.29919694879 l -2.63935755903,2.63935755903 l 1.31967877951,1.97951816927 l 1.97951816927,-1.31967877951 l 1.97951816927,-4.6188757283 l 0.659839389758,-23.0943786415 l -0.659839389758,-7.91807267709 l -1.31967877951,-1.97951816927"/>
    <path d="m 1134.79327309,147.909597608 l 18.4755029132,-0.659839389757 l 96.9963902943,3.29919694879 l 26.3935755903,0 l 0.659839389757,12.5369484054 l -4.6188757283,0 l -1.31967877951,-1.31967877951 l 1.31967877951,-1.31967877951 l -0.659839389757,-1.97951816927 l -1.97951816927,0 l -1.97951816927,3.95903633854 l -34.3116482674,-2.63935755903 l -43.549399724,-1.31967877951 l -43.549399724,0 l -5.93855450782,0.659839389758 l -2.63935755903,1.31967877951 l -1.97951816927,-1.31967877951 l -3.95903633854,0 l -1.31967877951,-1.31967877951 l 0,-7.91807267709 l 1.31967877951,-1.97951816927 l 1.97951816927,0"/>
    <path d="m 663.667948796,146.589918829 l -54.1068299601,1.31967877951 l -5.27871511806,1.31967877951 l -1.97951816927,3.29919694879 l 0.659839389757,8.57791206685 l 1.97951816927,3.29919694879 l 1.97951816927,12.5369484054 l -0.659839389758,9.2377514566 l -1.31967877951,1.31967877951 l -3.29919694879,0.659839389757 l -19.7951816927,0 l -1.31967877951,1.97951816927 l 1.97951816927,1.31967877951 l 21.1148604722,-1.31967877951 l 5.27871511806,-3.29919694879 l 0,-11.2172696259 l -1.97951816927,-11.2172696259 l -1.97951816927,-5.27871511806 l 0,-7.25823328733 l 1.31967877951,-1.31967877951 l 31.0124513186,-1.31967877951 l 112.172696259,-0.659839389757 l 1.31967877951,1.31967877951 l -0.659839389757,13.1967877951 l -1.97951816927,0 l -1.31967877951,-1.31967877951 l 0,-3.29919694879 l -1.97951816927,-0.659839389757 l -1.97951816927,2.63935755903 l -19.7951816927,-1.31967877951 l -37.6108452162,0 l -65.324099586,2.63935755903 l -3.29919694879,0.659839389757 l -0.659839389758,1.31967877951 l 1.97951816927,1.31967877951 l 13.1967877951,-1.31967877951 l 44.8690785035,-1.97951816927 l 66.6437783655,0.659839389757 l 1.31967877951,1.31967877951 l 0,22.4345392518 l 1.31967877951,3.29919694879 l 1.97951816927,1.31967877951 l 5.27871511806,0.659839389757 l 34.3116482674,0 l 1.97951816927,1.97951816927 l 3.29919694879,0.659839389757 l 1.31967877952,1.31967877951 l 0,6.59839389757 l -1.97951816927,2.63935755903 l -2.63935755903,0.659839389757 l -17.8156635235,0.659839389758 L 569.97075545,205.975463907 l -1.97951816927,-13.1967877951 l -1.97951816927,-1.97951816927 l -3.29919694879,0 l -2.63935755903,1.31967877951 l -3.95903633854,5.93855450782 l -0.659839389757,6.59839389757 l 1.97951816927,1.97951816927 l 8.57791206685,0.659839389757 l 1.31967877951,1.31967877951 l -0.659839389757,103.594784192 l -2.63935755903,1.31967877951 l -7.91807267709,0 l -1.97951816927,1.31967877951 l -1.31967877951,2.63935755903 l 0,3.95903633854 l 3.29919694879,3.29919694879 l 6.59839389757,0 l 3.95903633854,1.31967877951 l 0,143.844986967 l -0.659839389758,12.5369484054 l -1.31967877951,3.95903633854 l -3.95903633854,3.95903633854 l -154.267708352,4.19985792062 l -230.666920447,1.44008627136 l -72.6642849255,4.85969731038 L 556.773967655,493.665437841 l 5.93855450782,-1.97951816927 l 4.6188757283,-5.93855450782 l 1.31967877951,-10.5574302361 L 568.651076671,331.344947961 l 1.31967877951,-5.93855450782 l 224.345392518,0 l 2.63935755903,-1.97951816927 l 0,-22.4345392518 l -1.97951816927,-2.63935755903 l -5.93855450782,-1.31967877951 l 1.31967877951,-4.6188757283 l 0,-41.5698815547 l -1.97951816927,-29.6927725391 l -1.97951816927,-2.63935755903 l -28.3730937596,-1.97951816927 l -3.29919694879,-1.31967877951 l -15.8361453542,1.31967877951 l -1.97951816927,2.63935755903 l -0.659839389758,62.0249026372 l 1.31967877951,13.8566271849 l 2.63935755903,2.63935755903 l 7.25823328733,1.31967877951 l 17.1558241337,1.31967877951 l 28.3730937596,0 l 1.97951816927,1.97951816927 l 0,20.4550210825 l -225.005231907,0.659839389758 l -1.97951816927,-3.29919694879 l -1.97951816927,0.659839389758 l -1.31967877951,1.97951816927 l -7.25823328733,0 l -1.97951816927,-1.31967877951 l 0,-3.95903633854 l 1.97951816927,-1.97951816927 l 6.59839389757,0 l 2.63935755903,-0.659839389757 l 1.97951816927,-1.97951816927 l 1.31967877951,-104.914462971 l 207.189568384,0 l 13.1967877951,-0.659839389758 l 3.29919694879,-1.31967877951 l 1.97951816927,-3.29919694879 l 0,-8.57791206685 l -3.95903633854,-2.63935755903 l -1.31967877951,-2.63935755903 l -40.910042165,0 l -2.63935755903,-1.97951816927 l -0.659839389758,-21.774699862 l 5.27871511806,0 l 1.31967877951,-1.31967877951 l 0,-15.8361453542 l -1.31967877951,-1.31967877951 L 664.327788185,146.589918829"/>
    <path d="m 1087.94467641,145.930079439 l 1.97951816927,-0.659839389757 l 1.31967877951,1.97951816927 l -2.63935755903,0.659839389757 l -0.659839389758,-1.31967877951"/>
    <path d="m 1133.47359431,145.270240049 l -3.29919694879,0.659839389757 l -1.31967877951,1.97951816927 l 0.659839389758,12.5369484054 l 6.59839389757,1.31967877951 l -3.95903633854,3.29919694879 l 1.31967877952,21.774699862 l -1.31967877952,1.31967877951 l -3.29919694879,0.659839389757 l -34.9714876571,1.31967877951 l -1.97951816927,1.97951816927 l -1.31967877951,15.8361453542 l 1.97951816927,1.97951816927 l 8.57791206685,1.31967877951 l 112.832535649,1.31967877951 l 102.934944802,0 l 3.29919694879,-2.63935755903 l -1.97951816927,-11.2172696259 l -3.29919694879,-3.95903633854 l -35.6313270469,-0.659839389758 l -8.57791206685,-1.97951816927 l 0,-26.3935755903 l 7.25823328733,0 l 1.31967877951,-1.31967877951 l 0,-14.5164665747 l -1.31967877951,-1.31967877951 l -143.844986967,-3.29919694879"/>
    <path d="m 938.161134935,29.1385074518 l -9.89759084636,8.57791206685 l -23.0943786415,17.1558241337 l -118.111250767,81.8200843299 l -0.659839389757,1.97951816927 l 1.97951816927,0.659839389757 l 41.5698815547,-29.6927725391 l 38.2706846059,-25.7337362005 l 45.5289178933,-32.3321300981 l 26.3935755903,-20.4550210825 l 34.3116482674,23.0943786415 l 111.512856869,80.5004055504 L 951.35792273,134.712809813 l -5.93855450782,1.31967877951 l 1.97951816927,1.31967877951 l 33.6518088776,1.31967877951 l 73.9020116528,0 l 10.5574302361,-1.31967877951 l 22.4345392518,0 l 3.29919694879,1.31967877951 l 0,3.95903633854 l -3.29919694879,0 l -3.29919694879,5.27871511806 L 824.008920507,147.909597608 l -11.2172696259,-1.31967877951 l 0,-9.2377514566 l 1.97951816927,-1.97951816927 l 122.730126495,-0.659839389757 l 0,-1.97951816927 l -15.1763059644,-4.6188757283 l -7.91807267709,-6.59839389757 l -4.6188757283,-7.91807267709 l -1.97951816927,-9.2377514566 l 1.31967877951,-9.89759084636 l 5.27871511806,-9.89759084636 l 9.89759084636,-7.91807267709 l 11.2172696259,-3.29919694879 l 11.2172696259,0.659839389757 l 9.2377514566,3.95903633854 l 9.2377514566,8.57791206685 l 3.29919694879,5.93855450782 l 1.97951816927,12.5369484054 l -3.29919694879,11.8771090156 l -4.6188757283,6.59839389757 l -4.6188757283,3.95903633854 l -5.27871511806,2.63935755903 l -8.57791206685,1.97951816927 l -0.659839389757,1.31967877951 l 3.95903633854,0.659839389757 l 10.5574302361,-3.95903633854 l 6.59839389757,-5.27871511806 l 6.59839389757,-11.8771090156 l 1.31967877951,-13.1967877951 l -3.29919694879,-11.2172696259 l -7.25823328733,-9.2377514566 l -11.2172696259,-6.59839389757 l -5.27871511806,-1.31967877951 l -12.5369484054,0 l -6.59839389757,1.97951816927 l -9.2377514566,5.27871511806 l -7.25823328733,8.57791206685 l -3.29919694879,8.57791206685 l -0.659839389757,11.8771090156 l 1.97951816927,7.25823328733 l 5.27871511806,8.57791206685 l 7.25823328733,5.93855450782 l 7.25823328733,2.63935755903 l 0,1.31967877951 L 813.451490271,133.393131034 l -2.63935755903,2.63935755903 l -0.659839389758,11.2172696259 l -9.89759084636,-0.659839389757 l -4.6188757283,-1.97951816927 l -6.59839389757,-0.659839389758 l -1.31967877951,-2.63935755903 l -1.97951816927,0.659839389758 l 0,2.63935755903 l 3.29919694879,1.97951816927 l 5.93855450782,0 l 6.59839389757,2.63935755903 l 9.2377514566,0.659839389757 l 1.31967877951,49.4879542318 l 4.6188757283,75.2216904323 l 3.29919694879,2.63935755903 l 17.1558241337,1.31967877951 l 36.2911664367,-1.31967877951 l 4.6188757283,-1.97951816927 l 1.31967877951,-2.63935755903 l 1.97951816927,-73.9020116528 l -0.659839389758,-15.1763059644 l 3.29919694879,-1.97951816927 l 0,-1.97951816927 l -2.63935755903,-1.97951816927 l -11.2172696259,1.31967877951 l -8.57791206685,-2.63935755903 l -19.135342303,-1.97951816927 l -8.57791206685,0 l -5.27871511806,1.31967877951 l -1.31967877951,1.31967877951 l 0,1.31967877951 l 3.95903633854,2.63935755903 l 7.91807267709,1.31967877951 l 33.6518088776,-0.659839389757 l 5.93855450782,1.97951816927 l -1.31967877951,87.7586388377 l -2.63935755903,3.29919694879 l -11.2172696259,1.31967877951 l -42.2297209445,-0.659839389757 l -2.63935755903,-1.97951816927 l -5.93855450782,-114.812053818 l 0,-7.91807267709 l 1.31967877951,-1.31967877951 l 120.750608326,1.31967877951 l 142.525308188,-0.659839389758 l 7.25823328733,1.31967877951 l -1.31967877952,131.308038562 l 0.659839389758,9.2377514566 l 1.31967877952,0.659839389758 l 1.31967877951,-138.566271849 l 1.31967877951,-3.95903633854 l 3.95903633854,0 l 1.97951816927,-1.97951816927 l -0.659839389758,-9.2377514566 l -1.31967877951,-2.63935755903 l -124.709644664,-89.738157007 l -25.7337362005,-17.1558241337 l -2.63935755903,0"/>
  </g>
</svg>
