<svg viewBox="0 0 218.42 293.32" xmlns="http://www.w3.org/2000/svg">
  <g fill="none" stroke="currentColor" stroke-width="2" stroke-linecap="round" stroke-linejoin="round">
    <path d="m 108.277207251,169.980436304 l -25.6452294244,6.47537985467 l -55.8153187473,52.4651588225 l -15.1155996607,26.822729398 l 24.7833794438,-3.16980992886 l 7.24112983748,25.0350694381 l 93.1416879095,-95.5571678553 z"/>
    <path d="m 113.359887137,169.980436304 l 24.8825294415,8.76349980331 l 50.0899788758,48.8169689044 l 15.1206396606,25.1319794359 l -25.1647294352,-2.78845993742 l -6.4784298546,21.9842495066 l -87.0400380465,-89.8368779837 z"/>
    <path d="m 110.818547194,28.3008944836 c 2.28084994881,0 4.3710999019,-1.82976295893 6.84889984628,-3.53881192057 c 2.48415994425,-1.70269596178 5.31774988065,-5.20974088307 8.03062981976,-6.69642384971 c 2.71287993911,-1.48668196663 5.81330986953,-2.80182393712 8.2339298152,-2.20460995052 c 2.41426994581,0.590860986739 4.5489998979,3.20208492813 6.25804985954,5.77518887038 c 1.70903996164,2.57310394225 2.59850994168,7.00138384286 3.99624991031,9.66343478311 c 1.40408996849,2.66204994025 2.4015599461,5.25421388207 4.42192990075,6.31522285826 c 2.02670995451,1.06100797619 4.72052989405,0.412966990731 7.71294982689,0.0508299988592 c 2.98606993298,-0.355786992015 7.13480983987,-2.14107595195 10.2225297706,-2.19825595066 c 3.0877299307,-0.0571799987167 6.44864985527,0.222366995009 8.31017981349,1.87423595793 c 1.86787995808,1.64551596307 2.54768994282,4.94925388892 2.86534993569,8.0242718199 c 0.31766999287,3.07501793098 -0.959349978468,7.40164483388 -0.952999978611,10.4131287663 c 0,3.01148493241 -0.31766999287,5.76883587052 0.97841997804,7.64942482832 c 1.29607997091,1.88058995779 3.98989991045,2.55404394268 6.80442984728,3.62775891858 c 2.80816993697,1.0737149759 7.31268983587,1.4167959682 10.070049774,2.80182393712 c 2.76369993797,1.38502896891 5.60999987409,3.19573192828 6.49310985427,5.52105587609 c 0.883119980179,2.32532294781 -0.0507999988599,5.56552787509 -1.19442997319,8.43723881063 c -1.14994997419,2.87171093555 -4.28849990375,6.11191586282 -5.68623987238,8.78031980293 c -1.39137996877,2.66840394011 -2.96065993355,4.95560788878 -2.68110993983,7.22375083787 c 0.273189993868,2.26813894909 2.34437994738,4.1169589076 4.33297990275,6.37239885698 c 1.99494995523,2.26178994924 5.81965986938,4.65699989548 7.61765982903,7.16656983915 c 1.79798995965,2.50956994368 3.48162992186,5.43210987808 3.18301992856,7.90355982261 c -0.298599993298,2.47144994453 -2.63027994097,4.90477988992 -4.98101988821,6.91243984486 c -2.35072994724,2.00764995494 -6.63923985099,3.41809992328 -9.11068979552,5.13349988478 c -2.47780994439,1.7153999615 -4.92383988949,3.01783993227 -5.73706987124,5.15255988436 c -0.806869981891,2.13471995209 0.165189996292,4.73323989377 0.876759980322,7.65577982817 c 0.717929983887,2.92888993426 2.99242993284,6.82348984685 3.41809992328,9.88579977812 c 0.425669990446,3.06230993127 0.559089987452,6.42957985569 -0.85769998075,8.48170980964 c -1.41043996834,2.04577995408 -4.61252989648,3.11948992999 -7.62400982889,3.80564991459 c -3.01148993241,0.6861699846 -7.46517983245,-0.0571999987162 -10.4512497654,0.311319993013 c -2.98606993298,0.362139991872 -5.76247987067,0.381199991444 -7.47152983231,1.89328995751 c -1.70904996164,1.51209996606 -2.0584899538,4.26944990418 -2.78276993754,7.19198983858 c -0.724279983744,2.91617993455 -0.520969988307,7.42705983331 -1.56926996478,10.336889768 c -1.04194997661,2.90982993469 -2.4905099441,5.95307986639 -4.69511989462,7.10938984044 c -2.20460995052,1.15630997405 -5.5337698758,0.616269986168 -8.51983980878,-0.17153999615 c -2.98606993298,-0.794169982176 -6.58205985227,-3.519749921 -9.40293978896,-4.58711989705 c -2.81453993683,-1.06099997619 -5.2796298815,-2.33802994753 -7.49694983174,-1.79163995979 c -2.21731995023,0.546389987737 -3.80564991459,2.82088993669 -5.80059986981,5.06996988621 c -2.00129995508,2.25543994938 -3.92000991202,6.34063985769 -6.19450986097,8.43088981078 c -2.27449994895,2.09024995309 -4.97466988835,4.11060990774 -7.46517983245,4.11060990774 c -2.4905099441,0 -5.1906798835,-2.02035995466 -7.46517983245,-4.11060990774 c -2.27448994895,-2.09024995309 -4.19319990589,-6.1754498614 -6.19450986097,-8.43088981078 c -1.99494995523,-2.24907994952 -3.58327991958,-4.52357989847 -5.80059986981,-5.06996988621 c -2.21731995023,-0.546389987737 -4.68240989491,0.730639983602 -7.49693983174,1.79163995979 c -2.82088993669,1.06736997604 -6.41687985598,3.79294991487 -9.40294978896,4.58711989705 c -2.98606993298,0.787809982318 -6.31521985826,1.3278499702 -8.51982980878,0.17153999615 c -2.20460995052,-1.15630997405 -3.65317991801,-4.19955990575 -4.69511989462,-7.10938984044 c -1.04830997647,-2.90982993469 -0.844999981035,-7.42070983345 -1.56927996478,-10.336889768 c -0.724279983744,-2.92253993441 -1.0737199759,-5.67988987252 -2.78275993754,-7.19198983858 c -1.70904996164,-1.51208996606 -4.48545989933,-1.53114996563 -7.47153983231,-1.89328995751 c -2.98606993298,-0.368499991729 -7.43975983302,0.374849991587 -10.4512497654,-0.311319993013 c -3.01147993241,-0.6861599846 -6.21355986054,-1.7598699605 -7.62400982889,-3.80564991459 c -1.4167899682,-2.05212995394 -1.2833699712,-5.41939987837 -0.85769998075,-8.48170980964 c 0.425679990446,-3.06230993127 2.7001699394,-6.95690984386 3.41809992328,-9.88579977812 c 0.71156998403,-2.92253993441 1.68363996221,-5.52105987609 0.876759980322,-7.65577982817 c -0.813229981748,-2.13471995209 -3.25925992685,-3.43715992286 -5.73706987124,-5.15255988436 c -2.47144994453,-1.7153999615 -6.75994984828,-3.12584992984 -9.11068979552,-5.13349988478 c -2.35073994724,-2.00765995494 -4.68240989491,-4.44098990033 -4.98101988821,-6.91243984486 c -0.298609993298,-2.47144994453 1.38502996891,-5.39398987894 3.18301992856,-7.90355982261 c 1.79799995965,-2.50956994368 5.6227098738,-4.90477988992 7.61765982903,-7.16656983915 c 1.98859995537,-2.25543994938 4.05978990888,-4.10425990788 4.33297990275,-6.37239885698 c 0.279549993726,-2.26814294909 -1.28972997105,-4.55534689776 -2.68110993983,-7.22375083787 c -1.39772996863,-2.66840394011 -4.53628989819,-5.90860886739 -5.68623987238,-8.78031980293 c -1.14359997433,-2.87171093555 -2.07753995337,-6.11191586282 -1.19442997319,-8.43723881063 c 0.883109980179,-2.32532394781 3.7294099163,-4.13602690717 6.49311985427,-5.52105587609 c 2.75734993811,-1.38502796891 7.26186983701,-1.72810896121 10.070049774,-2.80182393712 c 2.81452993683,-1.0737149759 5.50833987637,-1.74716896079 6.80442984728,-3.62775891858 c 1.29607997091,-1.88058895779 0.978409978041,-4.63793989591 0.978409978041,-7.64942482832 c 0.00599999986531,-3.01148393241 -1.27066997148,-7.3381108353 -0.952999978611,-10.4131287663 c 0.31766999287,-3.07501793098 0.997469977613,-6.37875585684 2.86535993569,-8.0242718199 c 1.86152995822,-1.65186896293 5.22243988279,-1.93141595665 8.31016981349,-1.87423595793 c 3.0877199307,0.0571799987167 7.23645983758,1.84246895865 10.2225297706,2.19825595066 c 2.99241993284,0.362140991872 5.68623987238,1.01018197733 7.71295982689,-0.0508299988592 c 2.02035995466,-1.06100897619 3.01782993227,-3.65317291801 4.42191990075,-6.31522285826 c 1.39773996863,-2.66205094025 2.28720994867,-7.09033084086 3.99625991031,-9.66343478311 c 1.70904996164,-2.57310394225 3.84376991373,-5.18432788364 6.25803985954,-5.77518887038 c 2.42061994567,-0.597213986596 5.52104987609,0.717927983887 8.2339298152,2.20460995052 c 2.71287993911,1.48668296663 5.54646987552,4.99372788792 8.03062981976,6.69642384971 c 2.47779994439,1.70904896164 4.56804989747,3.53881192057 6.84889984628,3.53881192057 z"/>
    <path d="m 42.202448734,109.623687659 a 68.6161,68.6161 0 0,0 137.23220692,0 a 68.6161,68.6161 0 0,0 -137.23220692,0 z"/>
    <path d="m 47.28511862,109.623687659 a 63.5334,63.5334 0 0,0 127.066857148,0 a 63.5334,63.5334 0 0,0 -127.066857148,0 z"/>
  </g>
</svg>
