<svg viewBox="0 0 943.98 293.32" xmlns="http://www.w3.org/2000/svg">
  <g fill="none" stroke="currentColor" stroke-width="2" stroke-linecap="round" stroke-linejoin="round">
    <path d="m 50.5703758265,213.899604583 l 351.38158395,2.77118844306"/>
    <path d="M 468.894523726,169.980443783 L 443.249286426,176.455821783 L 387.433973826,228.920984983 L 372.318373326,255.743712683 L 397.101747826,252.573902783 L 404.342881526,277.608971283 L 497.484567226,182.051795483 Z"/>
    <path d="m 473.977198126,169.980443783 l 24.8825311323,8.76349637374 l 50.0899849324,48.8169655954 l 15.1206323195,25.1319824385 l -25.1647275683,-2.78845682934 L 532.427191326,271.888675383 L 445.387154626,182.051795483 Z"/>
    <path d="m 471.435860926,28.3008948831 c 2.280850137,0 4.371099984,-1.82976278399 6.848903754,-3.53881205099 c 2.484157113,-1.702695924 5.317748091,-5.20974126001 8.030625552,-6.69642352201 c 2.712877461,-1.486682262 5.813308845,-2.80182426299 8.233932528,-2.204610021 c 2.41427034,0.590860898999 4.548993588,3.202084872 6.258042855,5.775188787 c 1.709049267,2.573103915 2.598517287,7.001383986 3.996252747,9.663434703 c 1.404088803,2.662050717 2.401563654,5.25421466099 4.421926728,6.31522294199 c 2.026716417,1.061008281 4.720533849,0.412967295008 7.712958402,0.0508267440018 c 2.98607121,-0.355787207998 7.134804189,-2.141076591 10.222528887,-2.19825667799 c 3.087724698,-0.0571800870093 6.448643145,0.222367005001 8.310172644,1.874236185 c 1.867882842,1.64551583699 2.547690543,4.949254197 2.865357693,8.02427220899 c 0.31766715,3.07501801201 -0.959354793002,7.401644595 -0.953001450001,10.413129177 c 0,3.01148458201 -0.31766715,5.768835444 0.978414822002,7.649424972 c 1.296081972,1.88058952801 3.989899404,2.554043886 6.804430353,3.62775885301 c 2.808177606,1.073714967 7.312697793,1.416795489 10.070048655,2.80182426299 c 2.763704205,1.38502877401 5.610001869,3.19573152901 6.493116546,5.521055067 c 0.883114676999,2.325323538 -0.0508267439982,5.565528468 -1.194428484,8.437239504 c -1.149955083,2.871711036 -4.288506525,6.111915966 -5.686241985,8.78032002601 c -1.391382117,2.66840405999 -2.960657838,4.95560754 -2.681110746,7.22375099099 c 0.273193749003,2.268143451 2.344383567,4.116966264 4.332979926,6.372403029 c 1.994949702,2.26179010801 5.819662188,4.657000419 7.617658257,7.16657090401 c 1.797996069,2.509570485 3.481631964,5.432108265 3.183024843,7.90355869199 c -0.298607121,2.47145042699 -2.630284002,4.904780796 -4.981020912,6.912437184 c -2.35073691,2.007656388 -6.639243435,3.41809853401 -9.110693862,5.133501144 c -2.47780377,1.71540261 -4.923840825,3.017837925 -5.737068729,5.152561173 c -0.806874561,2.134723248 0.165186917999,4.733240535 0.876761333999,7.65577831501 c 0.717927759,2.928891123 2.992424553,6.823490382 3.418098534,9.88580170799 c 0.425673981001,3.06231132601 0.559094184002,6.429583116 -0.857701304998,8.48171290501 c -1.410442146,2.045776446 -4.612527018,3.119491413 -7.6240116,3.805652457 c -3.011484582,0.686161043996 -7.465178025,-0.0571800869948 -10.451249235,0.311313807004 c -2.98607121,0.362140550991 -5.762482101,0.381200579999 -7.471531368,1.893296214 c -1.709049267,1.512095634 -2.058483132,4.26944649601 -2.782764234,7.191984276 c -0.724281101997,2.91618443701 -0.520974126001,7.42705796701 -1.569275721,10.336889061 c -1.041948252,2.909831094 -2.490510456,5.953082391 -4.695120477,7.109390817 c -2.204610021,1.156308426 -5.533761753,0.616274271 -8.519832963,-0.171540260999 c -2.98607121,-0.794167874992 -6.582063348,-3.519752022 -9.40294764,-4.58711364599 c -2.814530949,-1.061008281 -5.279628033,-2.33803022401 -7.49694474,-1.79164272601 c -2.217316707,0.546387498005 -3.805652457,2.820884292 -5.800602159,5.06996771399 c -2.001303045,2.255436765 -3.920012631,6.34063631401 -6.194509425,8.430886161 c -2.274496794,2.09024984701 -4.974667569,4.11061292101 -7.465178025,4.11061292101 c -2.490510456,0 -5.190681231,-2.020363074 -7.465178025,-4.11061292101 c -2.274496794,-2.09024984699 -4.19320638,-6.175449396 -6.194509425,-8.430886161 c -1.994949702,-2.24908342199 -3.583285452,-4.52358021599 -5.800602159,-5.06996771399 c -2.217316707,-0.546387498005 -4.682413791,0.730634445004 -7.49694474,1.79164272601 c -2.820884292,1.06736162399 -6.41687643,3.792945771 -9.40294764,4.58711364599 c -2.98607121,0.787814531999 -6.315222942,1.327848687 -8.519832963,0.171540260999 c -2.204610021,-1.156308426 -3.653172225,-4.199559723 -4.695120477,-7.109390817 c -1.048301595,-2.90983109399 -0.844994619001,-7.42070462399 -1.569275721,-10.336889061 c -0.724281102001,-2.92253777999 -1.073714967,-5.679888642 -2.782764234,-7.191984276 c -1.709049267,-1.512095634 -4.485460158,-1.531155663 -7.471531368,-1.893296214 c -2.98607121,-0.368493893999 -7.439764653,0.374847236992 -10.451249235,-0.311313807004 c -3.011484582,-0.686161043996 -6.213569454,-1.759876011 -7.6240116,-3.805652457 c -1.416795489,-2.05212978901 -1.283375286,-5.419401579 -0.857701304998,-8.48171290501 c 0.425673980997,-3.06231132599 2.700170775,-6.956910585 3.418098534,-9.88580170799 c 0.711574416,-2.92253778 1.683635895,-5.521055067 0.876761333999,-7.65577831501 c -0.813227904,-2.134723248 -3.259264959,-3.437158563 -5.737068729,-5.152561173 c -2.471450427,-1.71540260999 -6.759956952,-3.125844756 -9.110693862,-5.133501144 c -2.35073691,-2.007656388 -4.682413791,-4.44098675701 -4.981020912,-6.912437184 c -0.298607121,-2.47145042699 1.385028774,-5.393988207 3.183024843,-7.90355869199 c 1.797996069,-2.50957048501 5.622708555,-4.904780796 7.617658257,-7.16657090401 c 1.988596359,-2.255436765 4.059786177,-4.104259578 4.332979926,-6.372403029 c 0.279547091999,-2.26814345099 -1.289728629,-4.555346931 -2.681110746,-7.22375099099 c -1.39773546,-2.66840406001 -4.536286902,-5.90860899001 -5.686241985,-8.78032002601 c -1.14360174,-2.871711036 -2.077543161,-6.111915966 -1.194428484,-8.437239504 c 0.883114676999,-2.325323538 3.729412341,-4.136026293 6.493116546,-5.521055067 c 2.757350862,-1.38502877399 7.261871049,-1.72810929599 10.070048655,-2.80182426299 c 2.814530949,-1.073714967 5.508348381,-1.747169325 6.804430353,-3.62775885301 c 1.296081972,-1.88058952799 0.978414822002,-4.63794038999 0.978414822002,-7.649424972 c 0.00635334300023,-3.01148458201 -1.2706686,-7.33811116499 -0.953001450001,-10.413129177 c 0.31766715,-3.07501801199 0.997474850999,-6.378756372 2.865357693,-8.02427220899 c 1.861529499,-1.65186918 5.222447946,-1.93141627201 8.310172644,-1.874236185 c 3.087724698,0.0571800869948 7.236457677,1.84246946999 10.222528887,2.19825667799 c 2.992424553,0.362140551006 5.686241985,1.010181537 7.712958402,-0.0508267440018 c 2.020363074,-1.061008281 3.017837925,-3.65317222499 4.421926728,-6.31522294199 c 1.39773546,-2.662050717 2.28720348,-7.09033078801 3.996252747,-9.663434703 c 1.709049267,-2.573103915 3.843772515,-5.184327888 6.258042855,-5.775188787 c 2.420623683,-0.597214241992 5.521055067,0.717927759004 8.233932528,2.204610021 c 2.712877461,1.486682262 5.546468439,4.993727598 8.030625552,6.69642352201 c 2.47780377,1.709049267 4.568053617,3.53881205099 6.848903754,3.53881205099 z"/>
    <path d="m 402.819756526,109.623685283 a 68.6161,68.6161 0 0,0 137.2322088,0 a 68.6161,68.6161 0 0,0 -137.2322088,0 z"/>
    <path d="m 407.902430926,109.623685283 a 63.5334,63.5334 0 0,0 127.06686,0 a 63.5334,63.5334 0 0,0 -127.06686,0 z"/>
    <path d="m 534.974113126,216.116552783 l 358.435859517,2.77118844305"/>
  </g>
</svg>
