<svg viewBox="0 0 336 380.8" xmlns="http://www.w3.org/2000/svg">
  <g fill="none" stroke="currentColor" stroke-width="2" stroke-linecap="round" stroke-linejoin="round">
    <path d="m 72.9999949657,350.399975837 l 14.9999989656,-109.999992414 l -69.9999951727,0 l 0,-9.99999931039 l 4.99999965519,0 L 22.9999984137,70.3999951452 l 69.9999951727,0 L 92.9999935867,55.3999961796 l 64.9999955175,0 L 157.999989104,20.3999985932 l 19.9999986208,0 l 0,34.9999975864 l 64.9999955175,0 l 0,14.9999989656 l 69.9999951727,0 l 0,159.999988966 l 4.99999965519,0 l 0,9.99999931039 l -69.9999951727,0 l 29.9999979312,119.999991725 L 252.999982553,360.399975147 L 227.999984277,240.399983422 l -39.9999972416,0 l 0,79.9999944831 l -19.9999986208,0 l 0,-79.9999944831 l -54.9999962071,0 l 4.99999965519,-19.9999986208 L 34.9999975867,220.399984801 L 34.9999975867,82.3999943176 L 300.999979243,82.3999943176 L 300.999979243,220.399984801 L 130.999990966,220.399984801 l -5.99999958623,19.9999986208 l -21.9999984829,0 l -29.9999979312,119.999991725 l -24.999998276,0 l 14.9999989656,-54.9999962071 l 199.999986208,0 l 4.9999996552,44.9999968968"/>
  </g>
</svg>
