<svg viewBox="0 0 1226.06 380.8" xmlns="http://www.w3.org/2000/svg">
  <g fill="none" stroke="currentColor" stroke-width="2" stroke-linecap="round" stroke-linejoin="round">
    <path d="M 65.6817356705,346.826556082 L 774.866376764,350.399975836 L 789.86637573,240.399983422 l -69.9999951727,0 l 0,-9.99999931039 l 4.99999965519,0 L 724.866380212,70.3999951451 l 69.9999951727,0 L 794.866375385,55.3999961796 l 64.9999955175,0 L 859.866370903,20.3999985932 l 19.9999986208,0 l 0,34.9999975864 l 64.9999955175,0 l 0,14.9999989656 l 69.9999951727,0 l 0,159.999988966 l 4.9999996552,0 l 0,9.99999931039 l -69.9999951727,0 l 29.9999979312,119.999991725 L 954.866364351,360.399975146 L 929.866366075,240.399983422 l -39.9999972416,0 l 0,79.9999944831 l -19.9999986208,0 l 0,-79.9999944831 l -54.9999962071,0 l 4.99999965519,-19.9999986208 L 736.866379385,220.399984801 L 736.866379385,82.3999943176 L 1002.86636104,82.3999943176 L 1002.86636104,220.399984801 L 832.866372765,220.399984801 l -5.99999958623,19.9999986208 l -21.9999984829,0 l -29.9999979312,119.999991725 l -24.999998276,0 l 14.9999989656,-54.9999962071 l 199.999986208,0 l 4.99999965519,44.9999968968 l 190.510966862,0.893359938393"/>
  </g>
</svg>
