<svg viewBox="0 0 414.97 311.24" xmlns="http://www.w3.org/2000/svg">
  <g fill="none" stroke="currentColor" stroke-width="2" stroke-linecap="round" stroke-linejoin="round">
    <path d="m 25.1555603256,137.6894274 c -5.28544,-74.70129 -3.77531,-97.11168 7.55064,-108.31687 c 11.32595,-11.2052 33.97785,-12.69923 79.28163,-12.69923 c 60.40506,0 113.25949,1.49403 135.91138,12.69923 c 15.10127,7.47012 22.6519,26.14545 26.42722,85.90647 c 3.77531,59.76105 -3.77532,89.64155 -18.87659,100.84675 c -11.32595,7.47012 -30.20252,11.20519 -83.05695,18.67532 c -60.40506,7.47013 -113.25948,11.2052 -135.91137,0 c -6.04051,-3.73507 -7.55064,-14.94026 -7.55064,-44.82078 c 0,-74.70129 3.77532,-134.46231 11.32595,-145.66751 c 7.55064,-11.20519 26.42722,-12.69921 71.731,-12.69921 c 52.85444,0 105.70885,1.49402 124.58544,8.96415 c 15.10126,7.47013 18.87657,22.41039 18.87657,82.17141 c 0,59.76103 -7.55063,82.17142 -22.65189,91.13558 c -45.30379,13.44623 -120.81012,28.38649 -173.66454,35.85662 c -7.55062,1.49403 -11.32594,7.47012 0,14.94026 c 22.6519,11.20519 67.95569,22.41038 105.70886,22.41038 c 60.40505,0 128.36074,-26.14545 211.41769,-41.0857 l 15.10126,-5.2291 l -75.50633,0 c -67.95568,0 -166.11389,8.96416 -173.66453,8.96416 c -22.65189,0 -83.05695,18.67532 -98.15821,11.20519 l 37.75316,18.67533 c 45.30379,14.94024 75.50632,14.94024 90.60758,14.94024 c 45.30379,0 135.91138,-29.8805 218.96833,-48.55582 c 7.55064,-2.24104 -15.10126,-18.67533 -90.60758,-18.67533"/>
  </g>
</svg>
